<?xml version="1.0" encoding="UTF-8"?>
<svg id="Layer_1" xmlns="http://www.w3.org/2000/svg" viewBox="0 0 30 30">
  <defs>
    <style>
      .cls-1 {
        fill: #3847ef;
      }
    </style>
  </defs>
  <path class="cls-1" d="M12.53,21.75l11.94-11.94-1.97-1.97-9.97,9.97-4.89-4.89-1.97,1.97,6.86,6.86ZM2.78,30c-.75,0-1.4-.28-1.95-.83-.55-.55-.83-1.2-.83-1.95V2.78c0-.75.28-1.4.83-1.95.55-.55,1.2-.83,1.95-.83h24.44c.75,0,1.4.28,1.95.83.55.55.83,1.2.83,1.95v24.44c0,.75-.28,1.4-.83,1.95-.55.55-1.2.83-1.95.83,0,0-24.44,0-24.44,0ZM2.78,27.22h24.44V2.78H2.78s0,24.44,0,24.44ZM2.78,2.78v24.44V2.78Z"/>
</svg>