<?xml version="1.0" encoding="UTF-8"?>
<svg id="Layer_1" xmlns="http://www.w3.org/2000/svg" viewBox="0 0 1540.9 2515.91">
  <defs>
    <style>
      .cls-1 {
        stroke-width: .41px;
      }

      .cls-1, .cls-2 {
        fill: none;
        stroke: #000;
        stroke-miterlimit: 10;
      }
    </style>
  </defs>
  <path class="cls-2" d="M224.19,281.5c.09-.46.18-.91.28-1.35"/>
  <path class="cls-2" d="M.31,1357.54c172.63,134.76,310.44-12.37,226.7-517.33-39.55-238.52-31.19-421.28-2.82-558.71"/>
  <path class="cls-2" d="M320.6,281.7c.01-.21.03-.43.05-.64"/>
  <path class="cls-2" d="M1.39,1656.39c265.75,221.5,482.54,6.36,354.51-765.68-39.57-238.6-47.2-440.06-35.31-609.01"/>
  <path class="cls-2" d="M1.39,1965.18c390.15,375.76,725.9,99.6,540.54-1018.18-41.52-250.39-57.7-471.32-55.96-665.5"/>
  <path class="cls-1" d="M966.89,2331.25s10.16,440.47,138.92-125.36,363.41-486.98,50.82-921.6c-211.2-293.65-274.45-494.68-250.73-616.66C969.55,340.3,1314.56.14,1314.56.14"/>
  <path class="cls-1" d="M1172.62,2363.47s103.25,428.32,109.21-151.95c5.96-580.27,252-552.92-145.57-911.45-268.61-242.24-373.01-425.31-375.67-549.55C753.45,417.16,1018.57,11.63,1018.57,11.63"/>
  <path class="cls-1" d="M825.37,2292.85s-60.29,436.44,157.15-101.58c217.45-538.02,436.5-422.71,197.32-901.66-161.6-323.6-191.94-532.16-149.05-648.78,115.09-312.96,509.99-593.67,509.99-593.67"/>
</svg>